
  <svg width="44" height="44" xmlns="http://www.w3.org/2000/svg">
    <rect width="44" height="44" rx="9" fill="#242526"/>
    <g transform="translate(7, 11.5)">
      <defs>
        <clipPath id="fc-44">
          <rect x="0" y="0" width="30" height="21" />
        </clipPath>
      </defs>
      <g clip-path="url(#fc-44)">
        <path
          d="M-13.5,5.3999999999999995
           Q-8.100000000000001,1.2 -2.6999999999999997,5.3999999999999995
           Q2.6999999999999997,9.6 8.100000000000001,5.3999999999999995
           Q13.5,1.2 19.2,5.3999999999999995
           Q24.599999999999998,9.6 30,5.3999999999999995
           Q35.4,1.2 40.800000000000004,5.3999999999999995"
          fill="none" stroke="#7d9fe3" stroke-width="2.75" stroke-linecap="round" opacity="0.85"
        />
        <path
          d="M-13.5,11.4
           Q-8.100000000000001,7.199999999999999 -2.6999999999999997,11.4
           Q2.6999999999999997,15.600000000000001 8.100000000000001,11.4
           Q13.5,7.199999999999999 19.2,11.4
           Q24.599999999999998,15.600000000000001 30,11.4
           Q35.4,7.199999999999999 40.800000000000004,11.4"
          fill="none" stroke="#7d9fe3" stroke-width="2.75" stroke-linecap="round" opacity="0.55"
        />
        <path
          d="M-13.5,17.4
           Q-8.100000000000001,13.2 -2.6999999999999997,17.4
           Q2.6999999999999997,21.599999999999998 8.100000000000001,17.4
           Q13.5,13.2 19.2,17.4
           Q24.599999999999998,21.599999999999998 30,17.4
           Q35.4,13.2 40.800000000000004,17.4"
          fill="none" stroke="#7d9fe3" stroke-width="2.75" stroke-linecap="round" opacity="0.3"
        />
      </g>
    </g>
  </svg>
